<svg width="173" height="196" viewBox="0 0 173 196" fill="none" xmlns="http://www.w3.org/2000/svg">
<path d="M166.149 143.62C166.795 150.982 168.003 161.913 168.526 166.458L161.991 179.519L104.16 176.88L24.2678 135.331L19.9822 117.737C22.9074 114.051 29.2633 106.269 31.2853 104.629C33.8127 102.58 37.5315 102.152 43.8742 96.1468C50.2169 90.1415 56.8931 84.8514 63.0931 77.6065C69.2931 70.3616 86.3181 54.5859 95.379 46.0069C102.628 39.1437 126.377 18.491 137.345 9.02259C140.254 5.92452 146.311 0.0526228 147.264 1.34969C148.455 2.97102 150.493 44.6881 151.968 55.3203C153.443 65.9524 158.823 88.6955 161.632 102.189C164.441 115.682 165.341 134.419 166.149 143.62Z" fill="#FF6912"/>
<path d="M163.167 104.941C148.725 99.0229 123.144 89.5885 113.769 90.1124C101.039 90.8238 95.6027 95.9712 93.5033 101.739C91.4038 107.508 88.6836 116.613 93.9737 123.289C98.2057 128.63 116.684 121.262 125.394 116.91C132.784 117.818 147.18 121.989 145.652 131.409C144.731 137.089 143.089 140.572 141.796 143.314C140.409 146.258 139.424 148.348 140.163 151.384C141.172 155.523 158.063 161.406 169.327 164.712C169.401 165.364 169.468 165.951 169.526 166.458L165.64 174.223L97.679 168.582L74.706 161.042L38.3732 142.146L22.9117 125.658L20.9822 117.737C23.9074 114.051 30.2633 106.269 32.2853 104.629C33.1548 103.924 34.1653 103.411 35.3751 102.797C36.8984 102.023 38.7377 101.089 41.0093 99.4099C41.7836 99.5964 42.6405 99.8545 43.587 100.199C49.8795 102.489 59.0793 108.213 62.8926 110.789C60.5019 105.02 56.2246 95.0291 53.1153 88.6402C56.8294 85.2693 60.5394 81.7589 64.0931 77.6064C64.0976 77.6011 64.1021 77.5959 64.1066 77.5906L64.8571 77.6546C65.1103 81.3098 68.0385 89.1454 77.7256 91.246C89.8345 93.8718 105.761 86.0099 110.769 77.1437C112.718 73.6935 113.931 70.7846 115.028 68.153C116.749 64.0219 118.186 60.5743 121.741 56.7893C127.559 50.5931 140.958 44.7806 149.062 45.3551C150.144 45.4318 151.126 45.5228 152.014 45.6231C152.347 49.7367 152.669 53.1663 152.968 55.3202C153.6 59.8763 154.949 66.6563 156.506 73.9793C154.76 73.985 151.882 74.1966 148.958 75.0095C145.258 76.0382 142.871 78.1384 142.139 79.06C144.444 78.711 151.026 79.444 158.92 85.1674C158.925 85.1716 158.931 85.1758 158.937 85.1799C159.148 86.1393 159.358 87.0938 159.566 88.0397C160.704 93.2067 161.785 98.1184 162.632 102.188C162.819 103.084 162.997 104.004 163.167 104.941Z" fill="url(#paint0_linear)"/>
<g filter="url(#filter0_di)">
<path d="M32.021 103.71C26.4133 107.369 21.545 114.545 20.5271 117.342C22.3065 118.979 27.2095 123.455 32.586 128.263C39.3065 134.272 45.1692 139.375 50.1739 143.572C55.1786 147.769 63.9022 151.538 70.1948 153.828C76.4873 156.118 95.0314 162.274 105.376 164.852C115.721 167.429 134.504 171.296 136.984 171.011C139.463 170.726 151.431 165.58 153.959 163.531C156.486 161.482 162.732 159.004 165.26 156.955C167.282 155.316 168.423 153.158 168.408 151.569L166.22 134.739C165.951 129.494 166.044 117.928 164.367 112.092C162.271 104.797 161.321 94.3554 160.035 89.7304C158.749 85.1055 156.322 70.5637 154.178 65.0326C152.463 60.6077 151.909 55.4967 151.846 53.4943C151.211 50.8878 148.997 45.3313 145.221 43.9571C141.926 42.7579 140.401 43.4086 139.896 44.0584C141.068 41.9943 143.336 38.1 144.175 37.0438C145.272 35.6615 149.611 31.8964 150.756 28.7502C151.902 25.6039 148.904 6.10362 148.809 3.1C148.715 0.0964062 146.363 0.0321308 145.187 0C135.903 8.10218 116.049 26.2132 112.425 29.6448C107.894 33.9343 100.312 40.0823 91.8234 47.0881C85.0327 52.6928 73.9553 65.7241 68.7411 71.3484C68.1839 74.5107 69.3195 82.4856 74.1237 87.5598C78.9279 92.6339 84.833 94.031 87.185 94.0952C85.4358 97.8135 81.4893 104.849 79.6971 103.247C77.457 101.244 71.0237 91.1823 62.7281 91.1322C56.0916 91.0921 53.7933 88.4738 46.5928 93.573C43.4143 93.6039 37.6288 100.05 32.021 103.71Z" fill="#FFE195"/>
</g>
<path d="M172.723 180.716C172.685 176.902 169.923 171.322 168.478 168.222C167.366 168.015 164.082 167.573 159.849 167.457C154.557 167.312 150.505 167.025 141.112 168.357C131.719 169.689 124.139 169.306 117.322 166.825C110.505 164.343 92.9616 160.334 84.3807 157.804C75.7998 155.275 56.3033 145.209 48.6766 140.058C42.5753 135.937 27.9585 123.016 21.4128 117.07C18.7427 117.88 13.3228 120.827 9.5843 123.267C5.84578 125.707 1.79802 130.716 0.668945 133.274C4.13202 137.9 12.9155 145.782 18.0251 150.017C24.4121 155.311 40.0262 165.292 47.5238 169.331C55.0214 173.369 75.2765 181.776 88.0525 185.833C100.828 189.889 118.554 192.808 127.708 193.765C136.861 194.721 147.784 195.393 153.076 195.537C157.309 195.653 167.406 194.555 171.856 193.206C172.206 191.156 172.76 184.53 172.723 180.716Z" fill="url(#paint1_linear)"/>
<path opacity="0.2" d="M168.737 181.825C163.538 182.287 156.862 182.879 150.262 182.377C139.678 181.57 134.316 180.432 128.267 179.149C126.06 178.681 123.762 178.194 121.085 177.696C116.68 176.876 112.607 176.408 108.829 175.973C104.023 175.42 99.6947 174.922 95.7707 173.826C92.0073 172.776 86.8555 170.363 81.4301 167.822C76.7529 165.632 71.8723 163.347 67.5024 161.756C65.7024 161.101 63.774 160.442 61.7561 159.753C53.1925 156.828 43.0151 153.352 34.1812 147.253C28.627 143.418 24.6776 139.399 21.1079 135.766C17.6622 132.26 14.5703 129.113 10.7306 126.841C9.55241 126.143 8.44141 125.508 7.40479 124.934C8.12734 124.306 8.86165 123.738 9.5844 123.267C13.3229 120.827 18.7428 117.88 21.4129 117.07C27.9586 123.016 42.5754 135.937 48.6767 140.058C56.3034 145.209 75.7999 155.275 84.3808 157.804C87.8215 158.818 92.7031 160.071 97.7565 161.367C105.306 163.303 113.239 165.338 117.322 166.825C124.139 169.306 131.72 169.689 141.112 168.357C149.641 167.148 153.767 167.273 158.416 167.415C158.886 167.429 159.362 167.444 159.849 167.457C164.083 167.573 167.366 168.015 168.478 168.222C168.585 168.451 168.699 168.694 168.819 168.949C170.317 172.137 172.688 177.184 172.723 180.716C172.725 180.964 172.725 181.225 172.723 181.495C171.532 181.577 170.193 181.696 168.737 181.825Z" fill="#D08B1C"/>
<path d="M105.9 59.2507C107.457 60.5124 111.091 64.3664 113.179 69.6884C115.79 76.3409 124.354 80.7505 131.227 71.7813" stroke="#FFC35E" stroke-width="2.08856" stroke-linecap="round"/>
<path d="M141.065 133.553C139.076 133.793 133.948 135.121 129.347 138.514C123.596 142.756 113.998 141.93 112.955 130.679" stroke="#FFC35E" stroke-width="2.08856" stroke-linecap="round"/>
<path d="M79.104 105.407C78.9922 107.345 79.6646 112.024 83.2489 115.229" stroke="#FFC35E" stroke-width="2.08856" stroke-linecap="round"/>
<defs>
<filter id="filter0_di" x="18.4385" y="0" width="149.97" height="176.247" filterUnits="userSpaceOnUse" color-interpolation-filters="sRGB">
<feFlood flood-opacity="0" result="BackgroundImageFix"/>
<feColorMatrix in="SourceAlpha" type="matrix" values="0 0 0 0 0 0 0 0 0 0 0 0 0 0 0 0 0 0 127 0"/>
<feOffset dx="-1.04428" dy="4.17712"/>
<feGaussianBlur stdDeviation="0.52214"/>
<feColorMatrix type="matrix" values="0 0 0 0 0 0 0 0 0 0 0 0 0 0 0 0 0 0 0.25 0"/>
<feBlend mode="normal" in2="BackgroundImageFix" result="effect1_dropShadow"/>
<feBlend mode="normal" in="SourceGraphic" in2="effect1_dropShadow" result="shape"/>
<feColorMatrix in="SourceAlpha" type="matrix" values="0 0 0 0 0 0 0 0 0 0 0 0 0 0 0 0 0 0 127 0" result="hardAlpha"/>
<feOffset dx="-1.04428" dy="3.13284"/>
<feComposite in2="hardAlpha" operator="arithmetic" k2="-1" k3="1"/>
<feColorMatrix type="matrix" values="0 0 0 0 1 0 0 0 0 0.658824 0 0 0 0 0.0823529 0 0 0 1 0"/>
<feBlend mode="normal" in2="shape" result="effect2_innerShadow"/>
</filter>
<linearGradient id="paint0_linear" x1="132.092" y1="37.3229" x2="85.3078" y2="165.861" gradientUnits="userSpaceOnUse">
<stop stop-color="#F76E1B"/>
<stop offset="1" stop-color="#D9580A"/>
</linearGradient>
<linearGradient id="paint1_linear" x1="94.2784" y1="141.216" x2="78.7937" y2="183.76" gradientUnits="userSpaceOnUse">
<stop stop-color="#FBD69D"/>
<stop offset="1" stop-color="#F6A323"/>
</linearGradient>
</defs>
</svg>
