<svg width="213" height="220" viewBox="0 0 213 220" fill="none" xmlns="http://www.w3.org/2000/svg">
<path d="M154.526 156.883C155.105 163.479 156.187 173.273 156.655 177.346L150.8 189.049L98.9835 186.684L27.3993 149.455L23.5593 133.691C26.1803 130.389 31.8753 123.416 33.6869 121.947C35.9515 120.111 39.2836 119.727 44.9667 114.347C50.6498 108.966 56.6317 104.226 62.1869 97.7344C67.7421 91.2429 82.9966 77.1078 91.1153 69.421C97.6102 63.2715 118.889 44.7666 128.717 36.2829C131.323 33.507 136.75 28.2457 137.604 29.4079C138.672 30.8606 140.498 68.2393 141.819 77.7658C143.14 87.2923 147.962 107.67 150.478 119.76C152.995 131.85 153.802 148.638 154.526 156.883Z" fill="#FF6912"/>
<mask id="mask0" mask-type="alpha" maskUnits="userSpaceOnUse" x="15" y="4" width="187" height="201">
<path d="M154.526 156.883C155.105 163.479 156.187 173.273 156.655 177.346L150.8 189.049L98.9835 186.684L27.3993 149.455L23.5593 133.691C26.1803 130.389 31.8753 123.416 33.6869 121.947C35.9515 120.111 39.2836 119.727 44.9667 114.347C50.6498 108.966 56.6317 104.226 62.1869 97.7344C67.7421 91.2429 82.9966 77.1078 91.1153 69.421C97.6102 63.2715 118.889 44.7666 128.717 36.2829C131.323 33.507 136.75 28.2457 137.604 29.4079C138.672 30.8606 140.498 68.2393 141.819 77.7658C143.14 87.2923 147.962 107.67 150.478 119.76C152.995 131.85 153.802 148.638 154.526 156.883Z" fill="#FF6912"/>
</mask>
<g mask="url(#mask0)">
<path d="M75.2977 109.956C66.618 108.073 63.9943 101.053 63.7674 97.7776L44.673 96.1487C45.7976 97.4448 48.5078 100.524 50.3527 102.473C52.1975 104.421 58.8911 119.947 62.0073 127.466C58.5905 125.158 50.3475 120.03 44.7093 117.978C39.0712 115.925 36.9776 117.292 36.6356 118.231L16.6827 130.656L48.4975 164.584L93.1761 179.249L161.352 184.908L161.098 176.834C151.573 174.254 132.266 168.043 131.242 163.839C129.962 158.585 134.448 156.493 136.16 145.942C137.53 137.501 124.63 133.764 118.009 132.95C110.205 136.85 93.648 143.452 89.856 138.666C85.1161 132.684 87.5534 124.526 89.4345 119.358C91.3157 114.189 96.1868 109.577 107.593 108.94C116.717 108.43 142.975 118.448 154.963 123.521C155.605 119.32 155.12 109.637 148.048 104.509C140.975 99.3809 135.078 98.7241 133.013 99.0368C133.668 98.2111 135.807 96.3293 139.123 95.4076C142.438 94.4859 145.687 94.427 146.897 94.5128L148.186 70.5057C147.617 70.1211 145.025 69.2489 139.216 68.8371C131.954 68.3224 119.949 73.5304 114.735 79.0822C109.522 84.634 109.393 89.3756 104.905 97.3198C100.417 105.264 86.1473 112.308 75.2977 109.956Z" fill="url(#paint0_linear)"/>
</g>
<g filter="url(#filter0_di)">
<path d="M34.346 121.123C29.3214 124.402 24.9594 130.831 24.0473 133.337C25.6417 134.804 30.0348 138.815 34.8521 143.123C40.8738 148.507 46.1267 153.079 50.611 156.84C55.0953 160.6 62.9116 163.977 68.5498 166.029C74.188 168.081 90.8036 173.597 100.073 175.906C109.342 178.216 126.172 181.681 128.393 181.425C130.614 181.17 141.338 176.559 143.603 174.723C145.867 172.887 151.464 170.667 153.728 168.831C155.54 167.362 156.563 165.429 156.549 164.005L154.589 148.925C154.348 144.226 154.431 133.862 152.929 128.633C151.051 122.097 150.199 112.742 149.047 108.598C147.895 104.454 145.72 91.4241 143.799 86.4681C142.263 82.5034 141.766 77.9239 141.709 76.1298C141.14 73.7944 139.157 68.8157 135.774 67.5845C132.822 66.5099 131.455 67.093 131.003 67.6752C132.053 65.8257 134.085 62.3364 134.836 61.3901C135.819 60.1516 139.707 56.778 140.733 53.9589C141.759 51.1398 139.073 33.6675 138.989 30.9763C138.904 28.285 136.797 28.2274 135.743 28.1987C127.425 35.4582 109.635 51.6858 106.388 54.7605C102.329 58.6039 95.5348 64.1125 87.9292 70.3898C81.8447 75.4117 71.9193 87.0878 67.2473 92.1271C66.7481 94.9606 67.7655 102.106 72.0702 106.653C76.3748 111.199 81.6657 112.451 83.7731 112.508C82.2058 115.84 78.6697 122.144 77.064 120.708C75.0568 118.914 69.2925 109.898 61.8596 109.854C55.9133 109.818 53.854 107.472 47.4023 112.041C44.5544 112.068 39.3706 117.844 34.346 121.123Z" fill="#FFE195"/>
</g>
<path d="M160.415 190.12C160.382 186.703 157.907 181.703 156.612 178.926C155.616 178.741 152.674 178.344 148.88 178.24C144.139 178.111 140.508 177.854 132.092 179.047C123.676 180.241 116.884 179.897 110.776 177.674C104.668 175.451 88.9492 171.858 81.2606 169.591C73.5721 167.325 56.1031 158.307 49.2696 153.691C43.8028 149.999 30.7061 138.421 24.8411 133.094C22.4487 133.819 17.5924 136.46 14.2427 138.646C10.893 140.832 7.26618 145.32 6.25451 147.612C9.35745 151.757 17.2274 158.82 21.8057 162.615C27.5285 167.358 41.5188 176.301 48.2367 179.919C54.9545 183.538 73.1033 191.071 84.5506 194.705C95.9979 198.34 111.88 200.955 120.082 201.812C128.283 202.669 138.07 203.271 142.812 203.4C146.605 203.504 155.651 202.52 159.639 201.311C159.952 199.475 160.448 193.538 160.415 190.12Z" fill="url(#paint1_linear)"/>
<mask id="mask1" mask-type="alpha" maskUnits="userSpaceOnUse" x="0" y="126" width="167" height="94">
<path d="M159.773 190.886C159.739 187.469 157.907 181.703 156.612 178.926C155.616 178.741 152.674 178.344 148.88 178.24C144.139 178.111 140.508 177.854 132.092 179.047C123.676 180.241 116.884 179.897 110.776 177.674C104.668 175.451 88.9492 171.858 81.2606 169.591C73.5721 167.325 56.1031 158.307 49.2696 153.691C43.8028 149.999 30.7061 138.421 24.8411 133.094C22.4487 133.819 17.5924 136.46 14.2427 138.646C10.893 140.832 7.26618 145.32 6.25451 147.612C9.35745 151.757 17.9935 159.463 22.5717 163.257C28.2945 168.001 41.8298 177.056 48.2367 179.919C54.6435 182.783 76.0442 192.233 87.4915 195.868C98.9388 199.502 111.88 200.955 120.082 201.812C128.283 202.669 138.836 203.914 143.578 204.043C147.371 204.147 155.651 202.52 159.639 201.311C159.952 199.475 159.806 194.304 159.773 190.886Z" fill="url(#paint2_linear)"/>
</mask>
<g mask="url(#mask1)">
<path opacity="0.2" d="M140.29 191.609C150.645 192.398 161.208 190.177 164.512 190.847L160.33 176.022L118.936 174.259L75.1975 159.935L24.1588 129.121L4.5064 136.334C5.75932 136.79 9.66608 138.532 15.2697 141.848C22.2742 145.994 26.5011 153.385 36.2815 160.138C46.0619 166.89 57.6802 170.054 66.1375 173.133C74.5947 176.211 85.187 182.194 91.466 183.948C97.745 185.701 105.178 185.746 114.148 187.415C123.118 189.083 127.347 190.622 140.29 191.609Z" fill="#D08B1C"/>
</g>
<path d="M100.543 81.2871C101.937 82.4177 105.193 85.8709 107.065 90.6394C109.404 96.6 117.077 100.551 123.235 92.5147" stroke="#FFC35E" stroke-width="2" stroke-linecap="round"/>
<path d="M132.05 147.863C130.268 148.077 125.673 149.267 121.551 152.308C116.398 156.109 107.798 155.369 106.863 145.288" stroke="#FFC35E" stroke-width="2" stroke-linecap="round"/>
<path d="M76.5328 122.643C76.4326 124.38 77.0351 128.573 80.2466 131.444" stroke="#FFC35E" stroke-width="2" stroke-linecap="round"/>
<defs>
<filter id="filter0_di" x="16.7461" y="4.2825" width="181.349" height="194.872" filterUnits="userSpaceOnUse" color-interpolation-filters="sRGB">
<feFlood flood-opacity="0" result="BackgroundImageFix"/>
<feColorMatrix in="SourceAlpha" type="matrix" values="0 0 0 0 0 0 0 0 0 0 0 0 0 0 0 0 0 0 127 0"/>
<feOffset dx="-1" dy="4"/>
<feGaussianBlur stdDeviation="0.5"/>
<feColorMatrix type="matrix" values="0 0 0 0 0 0 0 0 0 0 0 0 0 0 0 0 0 0 0.25 0"/>
<feBlend mode="normal" in2="BackgroundImageFix" result="effect1_dropShadow"/>
<feBlend mode="normal" in="SourceGraphic" in2="effect1_dropShadow" result="shape"/>
<feColorMatrix in="SourceAlpha" type="matrix" values="0 0 0 0 0 0 0 0 0 0 0 0 0 0 0 0 0 0 127 0" result="hardAlpha"/>
<feOffset dx="-1" dy="3"/>
<feComposite in2="hardAlpha" operator="arithmetic" k2="-1" k3="1"/>
<feColorMatrix type="matrix" values="0 0 0 0 1 0 0 0 0 0.660044 0 0 0 0 0.0833334 0 0 0 1 0"/>
<feBlend mode="normal" in2="shape" result="effect2_innerShadow"/>
</filter>
<linearGradient id="paint0_linear" x1="124.01" y1="61.6402" x2="82.0915" y2="176.811" gradientUnits="userSpaceOnUse">
<stop stop-color="#F76E1B"/>
<stop offset="1" stop-color="#D9580A"/>
</linearGradient>
<linearGradient id="paint1_linear" x1="90.129" y1="154.728" x2="76.2547" y2="192.848" gradientUnits="userSpaceOnUse">
<stop stop-color="#FBD69D"/>
<stop offset="1" stop-color="#F6A323"/>
</linearGradient>
<linearGradient id="paint2_linear" x1="90.129" y1="154.728" x2="76.2547" y2="192.848" gradientUnits="userSpaceOnUse">
<stop stop-color="#F8B854"/>
<stop offset="1" stop-color="#F6A323"/>
</linearGradient>
</defs>
</svg>
